<?xml version="1.0" encoding="utf-8"?>
<!-- Generator: Adobe Illustrator 16.0.0, SVG Export Plug-In . SVG Version: 6.00 Build 0)  -->
<!DOCTYPE svg PUBLIC "-//W3C//DTD SVG 1.1//EN" "http://www.w3.org/Graphics/SVG/1.1/DTD/svg11.dtd">
<svg version="1.1" id="Livello_1" xmlns="http://www.w3.org/2000/svg" xmlns:xlink="http://www.w3.org/1999/xlink" x="0px" y="0px"
	 width="730.434px" height="306.813px" viewBox="0 0 730.434 306.813" enable-background="new 0 0 730.434 306.813"
	 xml:space="preserve">
<g>
	<g>
		<path fill="#0865AE" d="M241.142,203.659v-47.562c0-2.357,0.223-12.566,0.223-20.082h-0.223l-22.661,67.644h-10.769l-22.661-67.53
			h-0.224c0,7.402,0.224,17.611,0.224,19.969v47.562h-10.544v-80.544H190.1l22.998,68.093h0.224l22.885-68.093h15.48v80.544H241.142
			z"/>
		<path fill="#0865AE" d="M299.252,144.99h10.879c-6.84,19.184-13.572,38.364-21.087,57.548
			c-9.311,23.782-10.322,25.13-22.996,25.13c-1.46,0-2.582-0.448-4.154-0.898v-8.971c1.237,0.445,3.256,1.006,5.947,1.006
			c5.161,0,5.722-1.459,10.432-13.572l-21.762-60.242h11.219l15.592,47.788h0.226L299.252,144.99z"/>
		<path fill="#0865AE" d="M332.233,203.659h-16.827v-80.545h36.795c15.593,0,25.018,9.985,25.018,25.804
			c0,7.291-4.038,25.689-25.688,25.689h-19.298V203.659z M347.827,160.695c12.563,0,12.563-8.975,12.563-12.563
			c0-7.854-4.375-11.107-14.807-11.107h-13.351v23.67H347.827z"/>
		<path fill="#0865AE" d="M429.496,191.994c0,7.068,1.569,8.638,3.478,9.311v2.354h-16.939c-0.897-2.805-1.122-3.702-1.459-7.068
			c-3.59,3.708-8.638,8.642-19.296,8.642c-8.974,0-18.173-5.048-18.173-17.39c0-11.666,7.405-17.612,17.389-19.07l14.136-2.131
			c2.467-0.335,5.494-1.345,5.494-4.712c0-6.618-6.28-6.954-10.319-6.954c-7.851,0-9.199,4.822-9.646,8.301h-15.146
			c1.797-18.286,14.472-20.867,26.7-20.867c8.412,0,23.783,2.581,23.783,17.277V191.994z M414.125,174.607
			c-1.568,1.232-4.15,2.242-10.655,3.251c-5.833,1.01-10.658,2.467-10.658,8.976c0,5.497,4.265,7.181,7.293,7.181
			c6.954,0,14.021-4.49,14.021-11.781V174.607z"/>
		<path fill="#0865AE" d="M438.917,143.981h15.033v10.32h0.225c3.252-6.059,6.842-11.893,16.378-11.893
			c1.01,0,2.02,0.113,3.028,0.224v15.932c-1.349-0.225-3.028-0.225-4.488-0.225c-12.228,0-14.471,7.627-14.471,14.246v31.073
			h-15.705V143.981z"/>
		<polygon fill="#0865AE" points="494.337,203.659 478.632,203.659 478.632,123.115 494.337,123.115 494.337,166.641 
			514.079,143.981 533.375,143.981 512.283,167.089 533.935,203.659 515.089,203.659 500.843,178.083 494.337,184.815 		"/>
		<path fill="#0865AE" d="M552.223,136.914h-15.705v-14.583h15.705V136.914z M552.223,203.659h-15.705v-59.678h15.705V203.659z"/>
		<path fill="#0865AE" d="M616.727,203.659h-15.706v-36.231c0-4.377-0.225-11.779-10.209-11.779c-6.954,0-12.34,4.712-12.34,13.798
			v34.213h-15.705v-59.678H577.8v8.749h0.224c2.132-3.589,6.618-10.321,17.948-10.321c11.668,0,20.755,6.844,20.755,19.971V203.659z
			"/>
		<path fill="#0865AE" d="M681.563,143.982v56.537c0,10.319-0.784,27.484-30.176,27.484c-12.34,0-25.354-5.271-26.024-17.95h17.051
			c0.673,3.029,1.906,6.062,10.994,6.062c8.413,0,12.451-4.043,12.451-13.688v-7.18l-0.225-0.226
			c-2.581,4.601-6.505,8.975-15.93,8.975c-14.359,0-25.69-9.982-25.69-30.85c0-20.642,11.668-30.737,24.796-30.737
			c11.102,0,15.59,6.508,17.499,10.433h0.224v-8.86H681.563z M652.623,190.758c10.657,0,13.348-9.085,13.348-17.272
			c0-9.648-4.71-17.5-13.461-17.5c-5.834,0-12.34,4.263-12.34,18.171C640.17,181.785,643.311,190.758,652.623,190.758"/>
		<path fill="#0865AE" d="M694.606,158.928c-4.028,0-7.617-2.788-7.617-7.575c0-4.793,3.589-7.578,7.617-7.578
			c4.009,0,7.595,2.785,7.595,7.578C702.201,156.14,698.615,158.928,694.606,158.928 M694.606,145.537
			c-3.006,0-5.433,2.328-5.433,5.815c0,3.486,2.427,5.83,5.433,5.813v0.018c2.927,0,5.412-2.344,5.412-5.83
			C700.019,147.865,697.533,145.537,694.606,145.537 M693.346,155.42h-1.745v-8.157h3.044c2.109,0,3.349,0.603,3.349,2.464
			c0,1.504-0.879,2.048-1.965,2.126l2.084,3.567h-2.063l-1.885-3.429h-0.819V155.42z M694.888,150.61
			c0.779,0,1.243-0.16,1.243-1.063c0-0.843-0.905-0.901-1.564-0.901h-1.221v1.964H694.888z"/>
	</g>
	<g>
		<g>
			<g>
				<radialGradient id="SVGID_1_" cx="117.4434" cy="206.3438" r="117.3176" gradientUnits="userSpaceOnUse">
					<stop  offset="0" style="stop-color:#D08613"/>
					<stop  offset="0.4586" style="stop-color:#E4B616"/>
					<stop  offset="1" style="stop-color:#FDEB1B"/>
				</radialGradient>
				<path fill="url(#SVGID_1_)" stroke="#1C3761" stroke-width="4.002" stroke-miterlimit="10" d="M109.904,98.169
					c-19.932,0-36.924,12.415-43.755,29.929c2.843,3.787,7.34,6.812,2.277,10.938c0.988,4.385-0.47,8.619-4.476,13.482
					c6.832,27.386,45.954,71.248,45.954,71.248s46.985-52.664,46.985-78.613C156.889,119.204,135.847,98.169,109.904,98.169z"/>
			</g>
			<g>
				<radialGradient id="SVGID_2_" cx="122.8481" cy="107.0654" r="114.4623" gradientUnits="userSpaceOnUse">
					<stop  offset="0" style="stop-color:#D08613"/>
					<stop  offset="0.4586" style="stop-color:#E4B616"/>
					<stop  offset="1" style="stop-color:#FDEB1B"/>
				</radialGradient>
				<path fill="url(#SVGID_2_)" d="M109.904,98.169c-19.932,0-36.924,12.415-43.755,29.929c2.843,3.787,7.34,6.812,2.277,10.938
					c0.988,4.385-0.47,8.619-4.476,13.482c6.832,27.386,45.954,71.248,45.954,71.248s46.985-52.664,46.985-78.613
					C156.889,119.204,135.847,98.169,109.904,98.169z"/>
				<g>
					<path fill="#1C3761" d="M111.821,222.056c-0.647-0.731-1.277-1.492-1.917-2.229c-0.641,0.737-1.274,1.498-1.918,2.229H111.821z
						"/>
					<path fill="#1C3761" d="M104.706,98.447c-1.709,0.292-3.455,0.421-5.139,0.848c-3.376,0.791-6.72,1.828-9.841,3.368
						c-1.597,0.699-3.12,1.533-4.601,2.453c-1.54,0.824-2.906,1.909-4.322,2.925c-1.444,0.986-2.65,2.262-3.992,3.383
						c-1.242,1.218-2.42,2.519-3.59,3.814c-2.167,2.735-4.251,5.58-5.838,8.715c-0.609,1.152-1.167,2.326-1.669,3.527
						c0.292,0.429,0.606,0.847,0.936,1.259c0.477-1.468,1.085-2.883,1.747-4.279c1.414-3.128,3.294-6.028,5.379-8.77
						c1.116-1.306,2.24-2.619,3.437-3.859c1.292-1.14,2.451-2.44,3.853-3.453c1.373-1.043,2.704-2.159,4.212-3.018l2.203-1.376
						l2.332-1.146c3.091-1.564,6.414-2.626,9.775-3.446c1.678-0.442,3.417-0.586,5.121-0.896c1.725-0.176,3.465-0.214,5.195-0.327
						C108.171,98.267,106.431,98.29,104.706,98.447z"/>
					<path fill="#1C3761" d="M156.28,133.764c-0.446-1.71-0.954-3.397-1.657-5.019c-0.583-1.665-1.371-3.24-2.193-4.792
						c-1.586-3.14-3.675-5.979-5.846-8.715c-1.171-1.297-2.344-2.597-3.59-3.814c-1.337-1.121-2.542-2.396-3.988-3.383
						c-1.418-1.017-2.786-2.102-4.326-2.925c-1.48-0.92-3.007-1.753-4.601-2.453c-3.12-1.538-6.464-2.576-9.84-3.368
						c-1.684-0.427-3.431-0.556-5.138-0.848c-1.726-0.157-3.465-0.181-5.197-0.278c1.732,0.113,3.468,0.151,5.19,0.327
						c1.707,0.31,3.447,0.453,5.123,0.896c3.363,0.82,6.685,1.885,9.778,3.446l2.33,1.147l2.203,1.379
						c1.504,0.857,2.835,1.973,4.209,3.017c1.401,1.015,2.564,2.317,3.853,3.454c1.195,1.239,2.319,2.553,3.437,3.858
						c2.084,2.741,3.958,5.646,5.377,8.771c0.731,1.553,1.426,3.114,1.916,4.76c0.613,1.601,1.028,3.257,1.381,4.927
						c0.78,3.324,1.06,6.635,1.092,10.153c0.053,1.634-0.356,3.311-0.501,4.95c-0.201,1.646-0.868,3.257-1.274,4.879
						c-0.376,1.64-1.169,3.183-1.776,4.769c-0.615,1.585-1.287,3.146-2.104,4.658c-1.469,3.087-3.156,6.069-4.906,9.024
						c-3.526,5.893-7.402,11.588-11.447,17.169c-3.981,5.621-8.25,11.044-12.541,16.448c-3.668,4.627-7.48,9.179-11.338,13.624
						c0.639,0.737,1.269,1.498,1.917,2.229h-3.834c0.644-0.731,1.277-1.492,1.918-2.229c-3.867-4.443-7.67-8.994-11.344-13.621
						c-4.301-5.394-8.559-10.825-12.548-16.446c-4.055-5.573-7.919-11.274-11.449-17.168c-1.748-2.952-3.437-5.938-4.907-9.025
						c-0.813-1.514-1.486-3.075-2.103-4.659c-0.605-1.577-1.405-3.149-1.768-4.739c-0.249-0.989-0.559-1.955-0.837-2.94
						c-0.579,0.776-1.219,1.565-1.934,2.377c0.102,0.406,0.211,0.813,0.296,1.219c0.347,1.821,1.073,3.4,1.632,5.09
						c0.565,1.68,1.193,3.336,1.953,4.92c1.369,3.255,2.961,6.388,4.607,9.485c1.64,3.107,3.43,6.117,5.219,9.132
						c1.86,2.961,3.66,5.973,5.667,8.836c7.818,11.619,16.41,22.588,25.597,33.192l1.918,2.215l1.917-2.215
						c9.187-10.603,17.79-21.567,25.605-33.187c2.004-2.864,3.818-5.867,5.672-8.833c1.79-3.014,3.579-6.027,5.215-9.131
						c1.653-3.102,3.238-6.235,4.609-9.488c0.76-1.584,1.388-3.24,1.957-4.921c0.556-1.683,1.287-3.289,1.622-5.061
						c0.358-1.754,0.96-3.435,1.106-5.238c0.088-1.815,0.426-3.582,0.288-5.418C157.711,140.791,157.248,137.159,156.28,133.764z"/>
				</g>
			</g>
			<path fill="#FFFFFF" stroke="#FFFFFF" stroke-width="7.0787" stroke-miterlimit="10" d="M109.9,105.745
				c-20.44,0-37.001,16.57-37.001,37.005c0,20.439,16.562,37.007,37.001,37.007c20.443,0,37.006-16.567,37.006-37.007
				C146.906,122.315,130.343,105.745,109.9,105.745z"/>
			
				<radialGradient id="SVGID_3_" cx="100.4629" cy="145.9971" r="42.7263" fx="94.3701" fy="144.9726" gradientUnits="userSpaceOnUse">
				<stop  offset="0" style="stop-color:#0C8DB0"/>
				<stop  offset="0.266" style="stop-color:#0B8CAF"/>
				<stop  offset="0.4358" style="stop-color:#0986A9"/>
				<stop  offset="0.5787" style="stop-color:#087CA1"/>
				<stop  offset="0.7066" style="stop-color:#0B6E94"/>
				<stop  offset="0.8246" style="stop-color:#105D85"/>
				<stop  offset="0.9336" style="stop-color:#144A75"/>
				<stop  offset="1" style="stop-color:#143D69"/>
			</radialGradient>
			<path fill="url(#SVGID_3_)" d="M144.251,142.75c0,18.972-15.381,34.354-34.352,34.354c-18.973,0-34.347-15.382-34.347-34.354
				c0-18.97,15.374-34.35,34.347-34.35C128.871,108.4,144.251,123.78,144.251,142.75z"/>
		</g>
		<g>
			<g>
				<path fill="#1C3761" d="M116.965,117.809H93.952v50.317h10.967v-17.942h11.63c15.96,0,16.149-15.491,16.149-16.15
					C132.699,124.022,126.674,117.809,116.965,117.809z M104.919,126.971h7.955c6.301,0,8.862,1.904,8.862,6.576
					c0,2.234,0,7.478-7.475,7.478h-9.342V126.971z"/>
				<g>
					<path fill="#1C3761" d="M116.965,113.956c-7.67,0-15.341,0-23.013,0c-2.098,0-3.848,1.754-3.848,3.853
						c0,16.772,0,33.546,0,50.317c0,2.1,1.75,3.854,3.848,3.854c3.655,0,7.314,0,10.967,0c2.098,0,3.849-1.754,3.849-3.854
						c0-5.979,0-11.959,0-17.942c-1.28,1.285-2.563,2.569-3.849,3.853c12.522,0,24.798,0.748,30.309-12.735
						C140.798,127.68,130.767,114.778,116.965,113.956c-4.962-0.294-4.934,7.409,0,7.704c10.695,0.637,14.367,10.891,9.937,19.449
						c-3.732,7.21-15.252,5.225-21.983,5.225c-2.1,0-3.851,1.75-3.851,3.85c0,5.983,0,11.964,0,17.942
						c1.281-1.283,2.566-2.567,3.851-3.851c-3.653,0-7.312,0-10.967,0c1.286,1.283,2.57,2.567,3.851,3.851
						c0-16.771,0-33.545,0-50.317c-1.281,1.281-2.565,2.567-3.851,3.852c7.672,0,15.343,0,23.013,0
						C121.933,121.66,121.933,113.956,116.965,113.956z"/>
					<path fill="#1C3761" d="M104.919,130.82c2.56,0,5.123,0,7.681,0c1.53,0,3.224-0.035,4.618,0.68
						c0.974,0.502,0.68,2.259,0.643,3.167c-0.085,2.304-2.166,2.505-4.49,2.505c-2.818,0-5.634,0-8.453,0
						c1.285,1.285,2.569,2.566,3.849,3.853c0-4.686,0-9.37,0-14.054c0-4.967-7.699-4.967-7.699,0c0,4.684,0,9.368,0,14.054
						c0,2.1,1.751,3.85,3.851,3.85c3.451,0,6.913,0.085,10.361-0.036c6.041-0.207,9.878-4.342,10.286-10.171
						c0.388-5.557-2.512-9.892-8.01-11.12c-4.021-0.898-8.542-0.429-12.637-0.429C99.952,123.118,99.952,130.82,104.919,130.82z"/>
				</g>
			</g>
			<g>
				<path fill="#FFFFFF" d="M116.965,117.809H93.952v50.317h10.967v-17.942h11.63c15.96,0,16.149-15.491,16.149-16.15
					C132.699,124.022,126.674,117.809,116.965,117.809z M104.919,126.971h7.955c6.301,0,8.862,1.904,8.862,6.576
					c0,2.234,0,7.478-7.475,7.478h-9.342V126.971z"/>
			</g>
			<g>
				<g>
					<path fill="#1C3761" d="M85.853,130.283l-0.744,12.166l-6.589-10.245l-3.491,0.914l-1.743-6.673l-7.43,1.944l-1.291,19.068
						l-10.517-15.971l-7.455,1.955l7.262,27.716l6.366-1.669l-3.288-12.537l7.492,11.438l5.557-1.453l0.908-13.655l3.288,12.547
						l6.372-1.666l-3.109-11.856l6.694,9.726c-0.148,1.313-0.318,2.642-0.429,2.857c-0.046,0.027-0.175,0.068-0.396,0.121
						c-0.342,0.092-0.676,0.137-1.331,0.122l-2.312-0.211l1.372,5.227l0.779,0.941l1.396,0.044c0.25,0,0.637-0.013,1.081-0.127
						c4.935-1.295,5.272-2.852,6.216-10.89c0.651-5.608,1.138-11.246,1.633-16.97l0.396-4.615L85.853,130.283z"/>
					<g>
						<path fill="#1C3761" d="M83.063,130.283c-0.245,4.056-0.494,8.109-0.743,12.166c1.732-0.469,3.465-0.938,5.198-1.406
							c-2.195-3.416-4.396-6.831-6.589-10.245c-0.687-1.068-1.896-1.609-3.149-1.283c-1.163,0.307-2.326,0.607-3.49,0.913
							c1.142,0.649,2.285,1.299,3.43,1.949c-0.58-2.225-1.165-4.447-1.744-6.67c-0.387-1.486-1.974-2.329-3.429-1.949
							c-2.477,0.646-4.953,1.296-7.428,1.943c-1.26,0.331-1.965,1.45-2.05,2.688c-0.43,6.358-0.861,12.711-1.291,19.068
							c1.732-0.469,3.464-0.939,5.196-1.407c-3.504-5.325-7.012-10.65-10.518-15.972c-0.701-1.063-1.888-1.614-3.148-1.283
							c-2.486,0.653-4.971,1.306-7.454,1.958c-1.481,0.39-2.33,1.976-1.948,3.432c2.421,9.236,4.841,18.475,7.26,27.715
							c0.389,1.482,1.976,2.328,3.43,1.949c2.125-0.559,4.245-1.115,6.365-1.67c1.485-0.388,2.331-1.975,1.951-3.432
							c-1.096-4.181-2.192-8.357-3.289-12.538c-1.7,0.718-3.398,1.435-5.097,2.15c2.497,3.812,4.994,7.623,7.494,11.436
							c0.698,1.063,1.887,1.612,3.147,1.283c1.855-0.485,3.708-0.97,5.558-1.456c1.26-0.326,1.967-1.45,2.05-2.687
							c0.301-4.553,0.604-9.104,0.906-13.655c-1.825,0.247-3.654,0.493-5.479,0.741c1.096,4.181,2.192,8.364,3.289,12.547
							c0.386,1.485,1.974,2.333,3.43,1.949c2.124-0.554,4.247-1.11,6.371-1.666c1.485-0.39,2.332-1.978,1.95-3.43
							c-1.035-3.954-2.074-7.906-3.108-11.858c-1.701,0.716-3.399,1.434-5.098,2.148c1.448,2.1,2.892,4.202,4.34,6.302
							c2.213,3.215,3.564,2.414,0.296,2.117c-1.851-0.167-3.117,1.903-2.69,3.531c1.856,7.063,4.028,10.258,11.645,6.633
							c3.352-1.599,3.953-6.304,4.344-9.458c0.992-8.082,1.669-16.195,2.361-24.307c0.158-1.851-1.896-3.119-3.528-2.691
							c-2.231,0.585-4.461,1.168-6.69,1.753c-3.478,0.909-2.001,6.292,1.482,5.378c2.229-0.586,4.461-1.169,6.688-1.751
							c-1.174-0.896-2.352-1.794-3.529-2.688c-0.616,7.2-1.235,14.399-2.028,21.585c-0.142,1.997-0.47,3.964-0.978,5.896
							c-1.635,6.962-5.127,0.479-3.341,2.633c-0.035-0.043-0.769-3.41-1.046-4.463c-0.896,1.175-1.792,2.352-2.689,3.528
							c1.604,0.147,3.21,0.355,4.776-0.133c0.886-0.275,1.763-0.992,1.951-1.946c1.203-6.11-3.199-9.867-6.546-14.73
							c-1.754-2.55-5.93-1.03-5.1,2.146c1.036,3.951,2.076,7.905,3.111,11.856c0.651-1.143,1.299-2.286,1.949-3.432
							c-2.123,0.558-4.246,1.113-6.372,1.669c1.143,0.648,2.285,1.298,3.431,1.946c-1.097-4.182-2.191-8.363-3.289-12.549
							c-0.832-3.167-5.275-2.308-5.479,0.743c-0.301,4.552-0.604,9.103-0.906,13.655c0.682-0.897,1.365-1.795,2.049-2.69
							c-1.854,0.484-3.708,0.968-5.558,1.453c1.049,0.427,2.099,0.855,3.148,1.281c-2.497-3.811-4.996-7.624-7.493-11.435
							c-1.715-2.615-5.921-0.988-5.099,2.146c1.096,4.182,2.191,8.36,3.288,12.54c0.652-1.145,1.299-2.287,1.951-3.432
							c-2.124,0.556-4.245,1.112-6.364,1.669c1.141,0.648,2.283,1.298,3.429,1.947c-2.419-9.238-4.843-18.475-7.261-27.716
							c-0.65,1.145-1.299,2.289-1.949,3.432c2.487-0.652,4.971-1.304,7.453-1.956c-1.049-0.429-2.099-0.856-3.149-1.282
							c3.504,5.324,7.013,10.647,10.517,15.97c1.566,2.374,5.01,1.379,5.199-1.406c0.43-6.357,0.86-12.71,1.292-19.068
							c-0.685,0.896-1.366,1.794-2.051,2.69c2.477-0.648,4.954-1.295,7.43-1.943c-1.142-0.65-2.284-1.299-3.43-1.947
							c0.581,2.223,1.164,4.445,1.743,6.671c0.388,1.482,1.974,2.326,3.43,1.947c1.163-0.304,2.327-0.608,3.49-0.912
							c-1.049-0.428-2.099-0.855-3.149-1.282c2.196,3.413,4.395,6.83,6.59,10.244c1.537,2.392,5.027,1.368,5.197-1.408
							c0.25-4.057,0.495-8.11,0.744-12.166C88.862,126.688,83.283,126.71,83.063,130.283z"/>
					</g>
				</g>
			</g>
			<g>
				<path fill="#FFFFFF" d="M82.269,160.175l0.979,0.027c0.185,0,0.48-0.012,0.819-0.097c4.325-1.136,4.579-2.058,5.52-10.1
					c0.655-5.597,1.153-11.364,1.633-16.94l0.286-3.306l-4.768,1.251l-0.872,14.328L78.1,133.276l-3.732,0.976l-1.746-6.67
					l-5.878,1.54l-1.434,21.152l-11.669-17.72l-5.908,1.55l6.79,25.918l4.562-1.196l-4.495-17.146l10.247,15.644l4.263-1.116
					l1.244-18.686l4.505,17.173l4.564-1.195l-4.222-16.098l9.908,14.391l-0.035,0.345c-0.303,2.596-0.401,2.938-0.534,3.184
					l-0.124,0.237l-0.232,0.133c-0.113,0.071-0.26,0.128-0.633,0.222c-0.402,0.107-0.78,0.152-1.342,0.152l-1.295-0.097l0.985,3.743
					L82.269,160.175z"/>
			</g>
		</g>
	</g>
</g>
</svg>
